<?xml version="1.0" standalone="no"?>
<!DOCTYPE svg PUBLIC "-//W3C//DTD SVG 20010904//EN"
 "http://www.w3.org/TR/2001/REC-SVG-20010904/DTD/svg10.dtd">
<svg version="1.0" xmlns="http://www.w3.org/2000/svg"
 width="500.000000pt" height="500.000000pt" viewBox="0 0 500.000000 500.000000"
 preserveAspectRatio="xMidYMid meet">

<g transform="translate(0.000000,500.000000) scale(0.100000,-0.100000)"
fill="#343945" >
<path d="M1958 3955 c-9 -12 -20 -35 -24 -51 -3 -16 -18 -39 -32 -51 l-26 -22
32 -30 c17 -17 37 -31 43 -31 17 0 69 57 70 77 0 10 2 26 4 35 2 9 -3 22 -11
29 -8 6 -12 15 -9 19 3 4 -2 11 -11 14 -8 3 -13 10 -9 15 12 21 -11 17 -27 -4z"/>
<path d="M1794 3763 c4 -21 9 -45 11 -53 2 -8 4 -18 4 -21 1 -3 11 -16 23 -29
17 -18 18 -22 5 -17 -37 14 -15 -23 41 -67 59 -47 74 -55 67 -33 -2 6 17 26
43 42 55 35 80 80 86 154 4 52 4 53 -21 46 -13 -3 -34 -14 -45 -25 -12 -11
-25 -17 -30 -14 -4 3 -8 0 -8 -7 0 -8 -4 -8 -15 1 -13 11 -14 10 -9 -4 4 -10
1 -16 -7 -17 -8 0 -24 -2 -36 -3 -16 -2 -35 11 -62 41 -22 24 -43 43 -47 43
-4 0 -4 -17 0 -37z"/>
<path d="M2160 3628 c-14 -13 -34 -25 -45 -26 -11 -2 -21 -8 -23 -13 -2 -5
-12 -9 -23 -9 -10 0 -19 -4 -19 -10 0 -5 -3 -9 -7 -8 -5 2 -17 -4 -28 -12 -25
-19 -33 -60 -11 -60 18 0 23 -45 7 -55 -6 -3 -8 6 -5 20 2 14 0 25 -6 25 -6 0
-8 -4 -5 -10 3 -5 2 -10 -4 -10 -10 0 -9 -25 2 -36 4 -4 7 -13 7 -20 0 -23
-32 -8 -69 33 -47 52 -102 91 -123 88 -10 -2 -19 6 -22 20 -3 12 -17 30 -31
39 -24 16 -25 16 -25 -6 0 -13 5 -39 11 -58 6 -19 12 -58 15 -87 4 -51 3 -52
-31 -69 -19 -9 -35 -21 -35 -28 0 -16 -20 16 -20 34 0 11 3 11 12 2 19 -19 29
-14 16 7 -7 11 -16 17 -21 14 -6 -4 -8 5 -5 21 4 17 1 26 -8 26 -8 0 -11 -6
-7 -17 4 -11 3 -14 -6 -9 -9 6 -11 0 -6 -26 5 -31 15 -121 18 -163 1 -21 11
-33 42 -51 26 -14 29 -29 10 -47 -8 -9 -15 -23 -15 -31 0 -22 -9 -20 -39 7
l-25 22 26 -34 26 -34 -39 -76 c-22 -41 -39 -85 -39 -98 0 -12 -6 -28 -14 -35
-9 -9 -11 -20 -5 -29 5 -9 3 -37 -5 -67 -8 -28 -12 -53 -9 -55 2 -3 -3 -58
-12 -123 -23 -165 -10 -271 47 -390 23 -48 38 -65 71 -83 37 -19 39 -21 12
-16 l-30 5 28 -25 c15 -14 23 -25 17 -25 -7 0 -9 -8 -5 -19 3 -10 1 -29 -4
-42 -9 -24 -10 -23 -17 9 -8 40 -23 52 -17 14 3 -20 -3 -14 -20 22 -22 44 -25
46 -31 25 l-6 -24 -14 24 c-13 23 -14 23 -18 5 -3 -18 -4 -18 -23 3 -14 17
-21 19 -27 10 -6 -9 -8 -9 -8 1 0 7 -4 10 -10 7 -5 -3 -18 -1 -29 5 -30 16
-39 -9 -11 -32 12 -10 16 -18 9 -18 -7 0 -23 9 -35 21 -14 13 -24 17 -29 10
-3 -6 1 -14 9 -17 9 -3 16 -15 16 -25 0 -11 7 -19 16 -19 8 0 13 -4 9 -9 -3
-5 -1 -12 5 -16 5 -3 10 -14 10 -23 0 -10 10 -22 21 -27 12 -6 21 -14 20 -19
-1 -5 13 -16 31 -24 30 -13 31 -15 13 -22 l-20 -8 20 -8 c11 -4 42 -25 69 -46
27 -21 55 -38 62 -38 7 0 34 -11 60 -25 26 -14 56 -25 67 -25 11 0 17 -3 14
-7 -11 -11 35 -53 58 -53 12 0 30 -7 41 -14 17 -14 14 -15 -41 -14 -58 0 -61
2 -108 49 -27 27 -57 49 -69 49 -16 0 -18 -3 -9 -13 6 -8 8 -16 5 -20 -3 -3 2
-17 12 -31 23 -36 14 -41 -27 -17 -19 11 -54 27 -78 36 -41 14 -43 14 -30 -3
18 -24 72 -72 82 -72 4 0 7 -7 7 -15 0 -10 10 -15 26 -15 22 0 24 -2 15 -14
-10 -12 -8 -14 13 -12 14 1 29 6 33 9 11 12 25 8 17 -5 -5 -8 0 -9 14 -6 12 4
22 3 22 -1 0 -3 21 -5 48 -3 32 2 43 0 33 -6 -7 -6 -11 -14 -7 -20 11 -18 113
-62 145 -62 16 0 33 -5 36 -10 3 -5 -1 -10 -10 -10 -9 0 -13 -5 -10 -10 4 -6
23 -7 47 -4 38 7 40 6 29 -13 -10 -20 -9 -20 24 -13 20 5 33 4 29 -1 -7 -11
10 -11 59 0 33 8 36 7 25 -6 -10 -13 -8 -15 12 -12 14 1 38 -3 55 -10 16 -7
37 -10 47 -8 9 3 18 1 20 -3 2 -5 37 -11 78 -14 41 -2 87 -9 101 -14 14 -6 31
-7 38 -2 11 6 11 9 0 13 -11 3 -9 9 6 21 19 15 19 16 1 9 -14 -4 -17 -3 -12 6
5 7 0 18 -10 26 -11 8 -15 15 -10 15 11 0 79 -50 84 -62 2 -4 8 -8 14 -8 6 0
4 8 -5 18 -10 10 -15 21 -12 24 3 3 -3 11 -12 19 -16 13 -17 12 -4 -3 18 -24
-1 -23 -23 1 -16 18 -16 19 9 19 14 -1 28 -5 31 -10 3 -5 15 -1 25 8 29 26 49
26 49 0 0 -12 -5 -27 -10 -34 -7 -9 -7 -9 2 -2 19 16 28 12 28 -13 0 -29 -43
-72 -64 -64 -10 4 -13 1 -9 -9 6 -17 9 -17 35 -3 36 19 32 0 -11 -51 -23 -27
-41 -50 -39 -50 2 0 21 9 43 20 22 11 49 20 62 20 12 0 25 5 29 11 3 6 21 18
38 26 57 26 79 41 137 92 32 28 60 51 63 51 13 0 5 -42 -14 -77 -28 -53 -26
-72 5 -43 13 13 27 31 30 41 5 15 11 16 31 9 17 -7 32 -6 45 0 18 10 18 13 4
40 -20 38 -19 41 7 31 23 -8 37 6 54 52 3 9 10 17 14 17 10 0 55 88 56 110 1
8 2 41 3 73 1 69 11 72 67 21 48 -45 110 -85 118 -77 3 3 17 -2 30 -11 14 -9
29 -16 33 -16 15 0 -51 59 -78 70 -28 12 -41 40 -18 40 6 0 1 9 -12 20 l-24
19 28 1 c33 0 36 22 6 43 -13 10 -17 17 -9 22 6 4 21 -6 33 -21 49 -61 49 -61
42 -34 -4 14 -16 38 -27 54 l-21 29 29 -7 c16 -4 43 -23 61 -44 17 -20 34 -34
38 -31 3 4 -1 12 -10 19 -8 7 -15 18 -15 24 0 19 61 40 112 39 44 -2 47 0 38
18 -12 21 -18 23 -72 20 -39 -3 -47 6 -25 28 10 10 3 11 -31 5 -37 -6 -42 -4
-36 10 5 13 1 15 -24 10 -25 -5 -30 -3 -29 12 2 16 -4 18 -36 16 l-38 -4 16
38 c9 21 22 46 30 54 17 18 19 30 7 30 -5 0 -22 -20 -40 -45 -17 -25 -38 -45
-45 -45 -7 0 -24 -11 -37 -25 -47 -50 -75 -13 -38 51 12 22 25 41 28 44 3 3
17 32 31 65 24 57 27 60 56 57 17 -2 34 2 38 7 3 7 -3 11 -15 11 -12 0 -18 5
-15 10 3 6 23 10 43 10 28 0 33 3 24 12 -17 17 -15 31 3 24 9 -3 24 2 35 12
10 9 26 23 35 31 9 7 14 16 11 19 -3 3 -15 -3 -26 -13 -11 -10 -20 -14 -20
-10 0 5 -6 0 -14 -11 -8 -10 -18 -16 -21 -12 -4 4 -14 0 -23 -9 -14 -14 -16
-14 -22 3 -6 15 -9 12 -18 -14 -6 -18 -13 -32 -16 -32 -3 0 -3 48 1 107 l6
108 -23 -16 c-16 -11 -29 -34 -37 -70 -22 -89 -21 -88 -53 -50 -17 20 -34 31
-43 28 -11 -4 -16 10 -21 66 -4 42 -3 74 3 80 7 7 28 1 61 -16 27 -14 50 -23
50 -19 0 4 -20 28 -45 52 -47 46 -57 67 -28 56 15 -6 15 -4 -2 14 -10 11 -22
20 -26 20 -18 0 -83 -66 -116 -119 -20 -31 -67 -87 -106 -126 -73 -73 -98
-109 -112 -160 -4 -16 -10 -24 -12 -17 -3 7 5 44 18 82 12 39 20 73 16 76 -9
10 -36 -15 -54 -50 -26 -51 -128 -187 -131 -176 -2 6 15 44 38 86 23 42 39 78
37 80 -8 8 -78 -24 -113 -51 -18 -14 -47 -50 -64 -80 -18 -31 -44 -70 -58 -87
-38 -44 -101 -88 -118 -81 -9 3 -29 -4 -45 -16 -33 -25 -40 -14 -8 15 11 10
25 27 31 38 9 16 7 18 -6 13 -27 -11 -18 2 14 18 36 19 100 74 100 86 0 23
-34 2 -140 -86 -63 -52 -119 -95 -124 -95 -5 0 36 43 92 95 96 91 100 97 95
130 -4 25 0 41 16 61 29 37 17 44 -19 9 l-29 -28 -31 33 c-16 17 -30 38 -30
46 0 7 16 26 35 41 24 19 45 51 66 103 17 41 35 79 40 85 15 15 10 35 -8 35
-68 -1 -200 -115 -287 -248 -58 -87 -111 -138 -76 -71 16 29 1 23 -65 -26 -33
-25 -88 -54 -125 -66 -36 -12 -80 -31 -99 -42 -19 -12 -31 -15 -27 -8 5 7 59
37 122 67 137 66 208 131 327 299 112 159 126 175 148 175 12 0 17 4 14 11 -4
6 12 1 35 -11 35 -18 44 -19 53 -7 20 23 191 124 224 131 17 4 51 20 75 35 62
39 183 103 248 130 30 13 56 24 57 25 6 5 -93 230 -120 274 -6 9 -14 9 -27 2
-16 -8 -22 -6 -36 15 -33 50 -54 136 -54 217 0 43 -3 78 -7 78 -5 0 -27 -22
-51 -49 -42 -50 -42 -50 -75 -37 -17 8 -58 20 -89 26 l-58 13 0 39 0 38 -110
0 c-102 0 -110 -1 -110 -19 0 -14 -5 -18 -19 -14 -28 7 -130 -22 -239 -67 -52
-22 -98 -38 -100 -35 -3 3 0 5 6 5 7 0 12 7 12 16 0 9 6 14 13 11 21 -7 66 21
63 40 -2 10 1 21 6 24 5 3 10 16 11 27 1 12 6 22 12 22 5 0 3 5 -5 10 -8 5
-10 10 -5 10 6 0 11 20 13 45 3 51 -3 54 -38 23z m588 -208 c28 -7 54 -16 57
-20 4 -7 -32 -70 -51 -89 -2 -2 -1 16 2 41 11 83 -19 69 -72 -32 -15 -30 -36
-63 -46 -73 -10 -10 -21 -30 -24 -45 -12 -50 -46 -111 -64 -117 -11 -4 -25
-26 -35 -56 -9 -27 -25 -54 -36 -59 -11 -6 -25 -34 -35 -68 -18 -66 -57 -110
-80 -91 -18 15 -28 5 -43 -42 -13 -41 -109 -149 -132 -149 -9 0 -30 -25 -47
-59 -29 -53 -59 -90 -65 -80 -1 2 -12 18 -25 36 -27 40 -27 49 -1 115 23 56
36 193 19 203 -5 3 -27 -19 -49 -49 -43 -58 -89 -96 -116 -96 -9 0 -22 -15
-30 -34 -8 -19 -21 -39 -28 -43 -7 -4 -23 -33 -36 -64 -12 -31 -39 -73 -60
-93 -33 -32 -39 -35 -51 -22 -8 10 -10 25 -5 43 5 16 7 35 6 44 -4 34 60 271
88 327 45 89 119 170 256 281 192 155 327 207 515 199 103 -3 121 6 28 15
-120 11 -302 -29 -405 -90 -25 -14 -77 -52 -116 -84 -39 -32 -73 -56 -75 -54
-2 2 5 17 17 33 24 34 27 47 9 36 -8 -4 -10 -3 -5 2 5 5 12 9 15 9 4 1 30 22
57 48 74 69 233 147 301 147 13 0 28 8 33 18 6 9 11 11 11 5 0 -10 29 -13 110
-13 104 0 110 1 110 20 0 22 -4 22 98 0z m-762 -291 c-8 -19 -25 -44 -39 -57
l-24 -23 4 28 c4 22 -1 18 -24 -23 -40 -69 -86 -129 -91 -116 -6 18 66 123
126 185 60 61 72 62 48 6z m919 -15 c-9 -22 -28 -52 -44 -69 -15 -16 -38 -61
-51 -100 -28 -84 -82 -194 -87 -178 -2 6 8 37 22 69 15 33 36 82 46 111 11 29
38 74 60 100 21 26 44 63 50 81 6 18 13 31 16 29 2 -3 -3 -22 -12 -43z m-1161
-12 c-11 -16 -19 -22 -22 -14 -2 7 4 25 14 40 11 16 19 22 22 14 2 -7 -4 -25
-14 -40z m1261 -176 c-19 -64 -35 -93 -35 -62 0 25 44 148 49 135 2 -6 -5 -39
-14 -73z m-319 -4 c-8 -16 -23 -35 -32 -43 -16 -12 -17 -12 -9 1 14 23 48 70
52 70 2 0 -3 -13 -11 -28z m-65 -169 c-12 -20 -14 -14 -5 12 4 9 9 14 11 11 3
-2 0 -13 -6 -23z m-247 -8 c-9 -14 -19 -24 -21 -21 -6 6 20 46 30 46 4 0 0
-11 -9 -25z m-761 -272 c2 -109 7 -209 11 -223 7 -24 7 -24 -8 -5 -28 34 -40
97 -40 215 -1 120 9 210 24 210 4 0 10 -89 13 -197z m795 -256 c16 -21 9 -73
-13 -103 -14 -19 -14 -19 -15 2 0 11 -3 24 -6 27 -7 6 -50 -24 -89 -63 -12
-11 -28 -20 -37 -20 -9 0 -19 -4 -22 -9 -9 -13 -46 -1 -46 15 0 8 6 11 15 8 8
-4 15 -2 15 4 0 5 25 26 55 46 31 20 53 41 50 46 -4 6 7 18 24 28 17 9 31 23
31 30 0 17 22 11 38 -11z m-368 -116 c0 -5 -18 -24 -40 -41 -48 -38 -52 -29
-8 17 32 33 48 41 48 24z m93 -16 c-3 -9 -8 -14 -10 -11 -3 3 -2 9 2 15 9 16
15 13 8 -4z m-320 -28 c-3 -12 -13 -30 -21 -39 -13 -15 -13 -18 -1 -18 8 0 16
-10 16 -22 2 -17 0 -19 -7 -9 -6 11 -12 7 -23 -20 l-15 -34 -1 31 c-1 16 4 35
11 42 9 9 9 12 -2 12 -12 1 -11 3 2 11 10 5 20 25 24 44 3 19 10 33 14 30 5
-3 6 -15 3 -28z m-52 7 c12 -14 11 -16 -5 -13 -11 2 -21 10 -24 17 -5 17 13
15 29 -4z m-1 -34 c8 -5 11 -10 5 -10 -5 0 -17 5 -25 10 -8 5 -10 10 -5 10 6
0 17 -5 25 -10z m-14 -42 c-3 -13 -6 -30 -7 -38 0 -8 -5 -2 -9 14 -10 31 -6
46 12 46 6 0 8 -10 4 -22z m94 -54 c0 -8 -4 -12 -10 -9 -5 3 -10 10 -10 16 0
5 5 9 10 9 6 0 10 -7 10 -16z m-27 -29 c-3 -9 -8 -14 -10 -11 -3 3 -2 9 2 15
9 16 15 13 8 -4z m102 -62 c-9 -37 -18 -20 -9 19 4 18 9 27 11 20 3 -7 2 -24
-2 -39z m1320 8 c-14 -12 -75 -22 -75 -12 0 12 19 19 55 20 17 1 25 -3 20 -8z
m-1284 -48 c-12 -20 -14 -14 -5 12 4 9 9 14 11 11 3 -2 0 -13 -6 -23z m-81 7
c0 -5 -8 -10 -17 -10 -15 0 -16 2 -3 10 19 12 20 12 20 0z m142 -30 c-2 -22
-6 -40 -8 -40 -2 0 -4 18 -4 40 0 22 3 40 8 40 4 0 6 -18 4 -40z m85 -37 c-3
-10 -5 -2 -5 17 0 19 2 27 5 18 2 -10 2 -26 0 -35z m-33 0 c-9 -52 -14 -54
-14 -5 0 23 5 42 10 42 7 0 8 -14 4 -37z m1120 -32 c3 -5 -1 -12 -10 -15 -20
-8 -29 -1 -19 13 8 13 22 14 29 2z m29 -52 c-4 -13 -11 -18 -20 -14 -11 4 -13
1 -9 -10 4 -11 2 -14 -6 -9 -7 5 -9 0 -6 -14 5 -18 2 -22 -15 -22 -17 0 -19 2
-8 9 12 8 13 12 1 25 -11 14 -10 16 6 10 10 -4 16 -4 12 1 -4 4 3 16 15 26 29
24 36 24 30 -2z m7 -38 c0 -5 -7 -12 -16 -15 -14 -5 -15 -4 -4 9 14 17 20 19
20 6z m-51 -65 c0 -7 -2 -6 -6 2 -2 6 -13 12 -24 12 -10 0 -19 7 -19 15 0 14
3 13 25 -1 14 -9 25 -21 24 -28z m-1092 8 c-3 -3 -12 -4 -19 -1 -8 3 -5 6 6 6
11 1 17 -2 13 -5z m1003 -3 c0 -5 -7 -11 -15 -15 -15 -5 -20 5 -8 17 9 10 23
9 23 -2z m-450 -41 c0 -5 -2 -10 -4 -10 -3 0 -8 5 -11 10 -3 6 -1 10 4 10 6 0
11 -4 11 -10z"/>
<path d="M1655 3530 c-8 -13 -3 -80 7 -80 4 0 6 20 5 45 -2 48 -3 50 -12 35z"/>
<path d="M1340 3204 c0 -17 24 -44 54 -62 l34 -20 7 25 c4 19 1 32 -15 47
l-20 21 6 -35 7 -35 -30 33 c-29 30 -43 39 -43 26z"/>
<path d="M1465 3178 c-9 -23 -2 -61 13 -66 14 -4 15 31 2 63 -7 18 -9 18 -15
3z"/>
<path d="M1555 3143 c3 -8 5 -22 6 -31 0 -14 2 -13 9 3 13 30 12 42 -5 42 -10
0 -14 -6 -10 -14z"/>
<path d="M1513 3127 c0 -7 -3 -31 -7 -53 -5 -27 -3 -44 3 -49 7 -4 11 5 12 22
0 15 2 41 3 56 1 16 -1 30 -4 32 -4 2 -7 -1 -7 -8z"/>
<path d="M1383 3095 c37 -33 57 -32 27 0 -13 14 -31 25 -39 25 -11 -1 -8 -8
12 -25z"/>
<path d="M3161 3083 l-24 -20 45 -55 c52 -64 100 -145 123 -208 22 -62 44
-150 45 -180 0 -17 14 -40 40 -65 l40 -39 0 47 c0 26 -4 55 -9 65 -6 9 -17 51
-27 92 -27 121 -92 248 -176 344 l-33 38 -24 -19z"/>
<path d="M1470 3038 c0 -9 5 -20 10 -23 13 -8 13 5 0 25 -8 13 -10 13 -10 -2z"/>
<path d="M1400 3015 c7 -8 24 -15 39 -15 25 1 25 1 7 15 -11 8 -29 15 -39 15
-16 0 -17 -3 -7 -15z"/>
<path d="M1510 2986 c0 -2 8 -10 18 -17 15 -13 16 -12 3 4 -13 16 -21 21 -21
13z"/>
<path d="M1435 2970 c-3 -5 7 -12 22 -16 15 -4 34 -11 41 -17 8 -7 12 -5 12 6
0 28 -61 50 -75 27z"/>
<path d="M1461 2916 c2 -2 24 -13 49 -25 l45 -22 -30 26 c-16 13 -39 25 -49
25 -11 0 -17 -2 -15 -4z"/>
<path d="M1420 2862 c0 -9 25 -33 48 -47 11 -6 12 -3 3 14 -12 22 -51 47 -51
33z"/>
<path d="M1360 2826 c0 -3 9 -10 20 -16 11 -6 20 -8 20 -6 0 3 -9 10 -20 16
-11 6 -20 8 -20 6z"/>
<path d="M3048 2775 c-16 -18 -28 -36 -28 -39 0 -4 14 9 31 29 18 20 30 37 28
39 -2 1 -16 -12 -31 -29z"/>
<path d="M1537 2754 c9 -15 19 -21 21 -15 4 13 -16 41 -29 41 -5 0 -2 -12 8
-26z"/>
<path d="M1449 2746 c14 -15 26 -26 28 -26 9 0 -24 40 -37 45 -8 4 -4 -5 9
-19z"/>
<path d="M3159 2748 c-7 -12 -37 -49 -67 -80 -30 -32 -49 -58 -42 -58 10 0 9
-4 -1 -17 -13 -16 -12 -17 3 -4 10 7 15 17 12 22 -3 5 1 9 9 9 24 0 118 133
104 147 -3 2 -11 -6 -18 -19z"/>
<path d="M1501 2710 c0 -8 6 -24 14 -34 11 -15 15 -16 15 -5 0 8 -7 24 -15 35
-11 14 -14 15 -14 4z"/>
<path d="M2820 2710 c0 -5 7 -10 15 -10 8 0 15 5 15 10 0 6 -7 10 -15 10 -8 0
-15 -4 -15 -10z"/>
<path d="M2825 2662 c-12 -28 -23 -92 -16 -92 16 0 41 43 41 70 0 34 -15 47
-25 22z"/>
<path d="M2725 2621 c-33 -21 -73 -56 -90 -79 -43 -59 -111 -173 -119 -199
l-7 -23 43 21 c24 11 51 23 61 26 9 3 17 12 17 21 0 8 3 13 6 10 3 -4 29 17
57 45 87 87 92 96 92 160 0 31 0 57 0 56 0 0 -27 -17 -60 -38z"/>
<path d="M3180 2624 c-19 -19 -27 -32 -17 -28 24 9 22 -1 -13 -51 -16 -24 -30
-46 -30 -49 0 -3 -19 -24 -42 -46 l-43 -41 38 22 c42 24 68 54 121 143 54 90
48 110 -14 50z"/>
<path d="M2434 2554 c-18 -15 -18 -15 6 -10 14 3 39 6 55 7 26 0 27 2 10 9
-30 13 -49 12 -71 -6z"/>
<path d="M2862 2503 c-22 -19 -67 -121 -57 -131 10 -10 116 110 113 127 -5 23
-31 25 -56 4z"/>
<path d="M3065 2400 c-10 -11 -16 -22 -13 -25 3 -3 13 4 23 15 10 11 16 22 13
25 -3 3 -13 -4 -23 -15z"/>
<path d="M2869 2327 c-30 -14 -87 -77 -69 -77 6 0 32 20 58 45 50 48 51 51 11
32z"/>
<path d="M2645 2198 c-11 -5 -33 -26 -50 -46 -39 -46 -5 -29 44 22 37 38 38
41 6 24z"/>
<path d="M1387 2093 c-13 -12 -7 -25 6 -14 8 6 18 7 22 3 5 -4 5 -1 1 6 -8 13
-19 16 -29 5z"/>
<path d="M3460 1700 c0 -12 28 -25 36 -17 3 3 -4 10 -15 17 -15 7 -21 7 -21 0z"/>
</g>
</svg>
