<svg width="89" height="16" viewBox="0 0 89 16" fill="none" xmlns="http://www.w3.org/2000/svg">
<g filter="url(#filter0_d_45_131)">
<path d="M6.755 11.135C6.295 11.135 5.845 11.1 5.405 11.03C4.965 10.96 4.55 10.855 4.16 10.715C3.77 10.565 3.42 10.385 3.11 10.175C2.96 10.065 2.855 9.94 2.795 9.8C2.745 9.66 2.73 9.525 2.75 9.395C2.78 9.255 2.84 9.135 2.93 9.035C3.02 8.935 3.13 8.875 3.26 8.855C3.39 8.825 3.535 8.865 3.695 8.975C4.145 9.265 4.62 9.48 5.12 9.62C5.62 9.75 6.165 9.815 6.755 9.815C7.605 9.815 8.23 9.665 8.63 9.365C9.04 9.055 9.245 8.655 9.245 8.165C9.245 7.765 9.1 7.45 8.81 7.22C8.52 6.98 8.035 6.79 7.355 6.65L5.75 6.32C4.8 6.12 4.09 5.79 3.62 5.33C3.16 4.87 2.93 4.25 2.93 3.47C2.93 3 3.025 2.57 3.215 2.18C3.415 1.79 3.69 1.455 4.04 1.175C4.39 0.885 4.81 0.665 5.3 0.514999C5.79 0.364999 6.325 0.289999 6.905 0.289999C7.525 0.289999 8.105 0.369999 8.645 0.53C9.195 0.69 9.685 0.934999 10.115 1.265C10.245 1.355 10.33 1.47 10.37 1.61C10.42 1.74 10.43 1.87 10.4 2C10.38 2.13 10.325 2.24 10.235 2.33C10.145 2.42 10.03 2.475 9.89 2.495C9.75 2.505 9.595 2.455 9.425 2.345C9.035 2.085 8.635 1.9 8.225 1.79C7.825 1.67 7.38 1.61 6.89 1.61C6.4 1.61 5.97 1.685 5.6 1.835C5.24 1.985 4.96 2.195 4.76 2.465C4.57 2.735 4.475 3.055 4.475 3.425C4.475 3.845 4.61 4.18 4.88 4.43C5.15 4.68 5.6 4.87 6.23 5L7.82 5.33C8.82 5.54 9.565 5.865 10.055 6.305C10.545 6.745 10.79 7.33 10.79 8.06C10.79 8.53 10.695 8.955 10.505 9.335C10.315 9.705 10.045 10.025 9.695 10.295C9.345 10.565 8.92 10.775 8.42 10.925C7.93 11.065 7.375 11.135 6.755 11.135ZM21.7861 11.135C21.0761 11.135 20.4511 11.045 19.9111 10.865C19.3711 10.675 18.9161 10.395 18.5461 10.025C18.1861 9.655 17.9111 9.195 17.7211 8.645C17.5311 8.095 17.4361 7.46 17.4361 6.74V1.1C17.4361 0.839999 17.5011 0.644999 17.6311 0.514999C17.7711 0.385 17.9661 0.32 18.2161 0.32C18.4661 0.32 18.6561 0.385 18.7861 0.514999C18.9261 0.644999 18.9961 0.839999 18.9961 1.1V6.71C18.9961 7.74 19.2311 8.51 19.7011 9.02C20.1811 9.53 20.8761 9.785 21.7861 9.785C22.7061 9.785 23.4011 9.53 23.8711 9.02C24.3411 8.51 24.5761 7.74 24.5761 6.71V1.1C24.5761 0.839999 24.6411 0.644999 24.7711 0.514999C24.9111 0.385 25.1011 0.32 25.3411 0.32C25.5911 0.32 25.7811 0.385 25.9111 0.514999C26.0411 0.644999 26.1061 0.839999 26.1061 1.1V6.74C26.1061 7.7 25.9411 8.51 25.6111 9.17C25.2911 9.82 24.8111 10.31 24.1711 10.64C23.5311 10.97 22.7361 11.135 21.7861 11.135ZM34.212 11.105C33.982 11.105 33.802 11.04 33.672 10.91C33.552 10.78 33.492 10.6 33.492 10.37V1.055C33.492 0.814999 33.557 0.634999 33.687 0.514999C33.817 0.385 33.992 0.32 34.212 0.32C34.422 0.32 34.582 0.36 34.692 0.439999C34.812 0.509999 34.922 0.64 35.022 0.83L38.952 8.165H38.487L42.402 0.83C42.502 0.64 42.607 0.509999 42.717 0.439999C42.827 0.36 42.987 0.32 43.197 0.32C43.417 0.32 43.587 0.385 43.707 0.514999C43.827 0.634999 43.887 0.814999 43.887 1.055V10.37C43.887 10.6 43.827 10.78 43.707 10.91C43.597 11.04 43.427 11.105 43.197 11.105C42.967 11.105 42.792 11.04 42.672 10.91C42.552 10.78 42.492 10.6 42.492 10.37V2.63H42.822L39.342 9.065C39.262 9.215 39.177 9.325 39.087 9.395C38.997 9.465 38.872 9.5 38.712 9.5C38.552 9.5 38.422 9.465 38.322 9.395C38.222 9.315 38.132 9.205 38.052 9.065L34.542 2.615H34.902V10.37C34.902 10.6 34.842 10.78 34.722 10.91C34.612 11.04 34.442 11.105 34.212 11.105ZM52.082 11.105C51.852 11.105 51.672 11.04 51.542 10.91C51.422 10.78 51.362 10.6 51.362 10.37V1.055C51.362 0.814999 51.427 0.634999 51.557 0.514999C51.687 0.385 51.862 0.32 52.082 0.32C52.292 0.32 52.452 0.36 52.562 0.439999C52.682 0.509999 52.792 0.64 52.892 0.83L56.822 8.165H56.357L60.272 0.83C60.372 0.64 60.477 0.509999 60.587 0.439999C60.697 0.36 60.857 0.32 61.067 0.32C61.287 0.32 61.457 0.385 61.577 0.514999C61.697 0.634999 61.757 0.814999 61.757 1.055V10.37C61.757 10.6 61.697 10.78 61.577 10.91C61.467 11.04 61.297 11.105 61.067 11.105C60.837 11.105 60.662 11.04 60.542 10.91C60.422 10.78 60.362 10.6 60.362 10.37V2.63H60.692L57.212 9.065C57.132 9.215 57.047 9.325 56.957 9.395C56.867 9.465 56.742 9.5 56.582 9.5C56.422 9.5 56.292 9.465 56.192 9.395C56.092 9.315 56.002 9.205 55.922 9.065L52.412 2.615H52.772V10.37C52.772 10.6 52.712 10.78 52.592 10.91C52.482 11.04 52.312 11.105 52.082 11.105ZM69.9819 11.105C69.7319 11.105 69.5369 11.035 69.3969 10.895C69.2669 10.755 69.2019 10.56 69.2019 10.31V1.115C69.2019 0.854999 69.2669 0.659999 69.3969 0.53C69.5369 0.39 69.7319 0.32 69.9819 0.32C70.2319 0.32 70.4219 0.39 70.5519 0.53C70.6919 0.659999 70.7619 0.854999 70.7619 1.115V10.31C70.7619 10.56 70.6969 10.755 70.5669 10.895C70.4369 11.035 70.2419 11.105 69.9819 11.105ZM81.5255 11.105C81.2755 11.105 81.0805 11.035 80.9405 10.895C80.8105 10.755 80.7455 10.56 80.7455 10.31V1.73H77.5655C77.3555 1.73 77.1905 1.675 77.0705 1.565C76.9505 1.445 76.8905 1.28 76.8905 1.07C76.8905 0.859999 76.9505 0.7 77.0705 0.59C77.1905 0.48 77.3555 0.424999 77.5655 0.424999H85.4705C85.6905 0.424999 85.8605 0.48 85.9805 0.59C86.1005 0.7 86.1605 0.859999 86.1605 1.07C86.1605 1.28 86.1005 1.445 85.9805 1.565C85.8605 1.675 85.6905 1.73 85.4705 1.73H82.2905V10.31C82.2905 10.56 82.2255 10.755 82.0955 10.895C81.9755 11.035 81.7855 11.105 81.5255 11.105Z" fill="black"/>
</g>
<defs>
<filter id="filter0_d_45_131" x="0.720001" y="0.290039" width="87.4405" height="14.845" filterUnits="userSpaceOnUse" color-interpolation-filters="sRGB">
<feFlood flood-opacity="0" result="BackgroundImageFix"/>
<feColorMatrix in="SourceAlpha" type="matrix" values="0 0 0 0 0 0 0 0 0 0 0 0 0 0 0 0 0 0 127 0" result="hardAlpha"/>
<feOffset dy="2"/>
<feGaussianBlur stdDeviation="1"/>
<feComposite in2="hardAlpha" operator="out"/>
<feColorMatrix type="matrix" values="0 0 0 0 0 0 0 0 0 0 0 0 0 0 0 0 0 0 1 0"/>
<feBlend mode="normal" in2="BackgroundImageFix" result="effect1_dropShadow_45_131"/>
<feBlend mode="normal" in="SourceGraphic" in2="effect1_dropShadow_45_131" result="shape"/>
</filter>
</defs>
</svg>
