<svg width="34" height="13" viewBox="0 0 34 13" fill="none" xmlns="http://www.w3.org/2000/svg">
<g filter="url(#filter0_d_45_132)">
<path d="M6.344 8.077C6.17533 8.077 6.047 8.033 5.959 7.945C5.871 7.84967 5.827 7.71767 5.827 7.549V1.114H3.418C3.27867 1.114 3.16867 1.07733 3.088 1.004C3.00733 0.923333 2.967 0.813333 2.967 0.674C2.967 0.534666 3.00733 0.428333 3.088 0.354999C3.16867 0.281666 3.27867 0.245 3.418 0.245H9.259C9.40567 0.245 9.51567 0.281666 9.589 0.354999C9.66967 0.428333 9.71 0.534666 9.71 0.674C9.71 0.813333 9.66967 0.923333 9.589 1.004C9.51567 1.07733 9.40567 1.114 9.259 1.114H6.85V7.549C6.85 7.71767 6.806 7.84967 6.718 7.945C6.63733 8.033 6.51267 8.077 6.344 8.077ZM14.7526 8.077C14.5913 8.077 14.4666 8.033 14.3786 7.945C14.2906 7.84967 14.2466 7.71767 14.2466 7.549V0.696C14.2466 0.52 14.2906 0.388 14.3786 0.299999C14.4666 0.212 14.5913 0.168 14.7526 0.168C14.9213 0.168 15.0496 0.212 15.1376 0.299999C15.2256 0.388 15.2696 0.52 15.2696 0.696V3.633H19.7576V0.696C19.7576 0.52 19.8016 0.388 19.8896 0.299999C19.9776 0.212 20.106 0.168 20.2746 0.168C20.436 0.168 20.5606 0.212 20.6486 0.299999C20.7366 0.388 20.7806 0.52 20.7806 0.696V7.549C20.7806 7.71767 20.7366 7.84967 20.6486 7.945C20.5606 8.033 20.436 8.077 20.2746 8.077C20.106 8.077 19.9776 8.033 19.8896 7.945C19.8016 7.84967 19.7576 7.71767 19.7576 7.549V4.502H15.2696V7.549C15.2696 7.71767 15.2256 7.84967 15.1376 7.945C15.057 8.033 14.9286 8.077 14.7526 8.077ZM26.827 8C26.651 8 26.5154 7.95233 26.42 7.857C26.3247 7.76167 26.277 7.626 26.277 7.45V0.795C26.277 0.619 26.3247 0.483333 26.42 0.388C26.5154 0.292666 26.651 0.245 26.827 0.245H30.875C31.0144 0.245 31.1207 0.281666 31.194 0.354999C31.2747 0.420999 31.315 0.519999 31.315 0.652C31.315 0.791333 31.2747 0.897666 31.194 0.970999C31.1207 1.04433 31.0144 1.081 30.875 1.081H27.267V3.644H30.644C30.7834 3.644 30.8897 3.68067 30.963 3.754C31.0364 3.82733 31.073 3.93 31.073 4.062C31.073 4.20133 31.0364 4.30767 30.963 4.381C30.8897 4.447 30.7834 4.48 30.644 4.48H27.267V7.164H30.875C31.0144 7.164 31.1207 7.20067 31.194 7.274C31.2747 7.34 31.315 7.44267 31.315 7.582C31.315 7.72133 31.2747 7.82767 31.194 7.901C31.1207 7.967 31.0144 8 30.875 8H26.827Z" fill="black"/>
</g>
<defs>
<filter id="filter0_d_45_132" x="0.96701" y="0.167969" width="32.348" height="11.9091" filterUnits="userSpaceOnUse" color-interpolation-filters="sRGB">
<feFlood flood-opacity="0" result="BackgroundImageFix"/>
<feColorMatrix in="SourceAlpha" type="matrix" values="0 0 0 0 0 0 0 0 0 0 0 0 0 0 0 0 0 0 127 0" result="hardAlpha"/>
<feOffset dy="2"/>
<feGaussianBlur stdDeviation="1"/>
<feComposite in2="hardAlpha" operator="out"/>
<feColorMatrix type="matrix" values="0 0 0 0 0 0 0 0 0 0 0 0 0 0 0 0 0 0 1 0"/>
<feBlend mode="normal" in2="BackgroundImageFix" result="effect1_dropShadow_45_132"/>
<feBlend mode="normal" in="SourceGraphic" in2="effect1_dropShadow_45_132" result="shape"/>
</filter>
</defs>
</svg>
